Coordinates
version=1
nRows=9
nColumns=43
inDegrees=yes

Units are S.I. units (second, meters, Newtons, ...)
Angles are in degrees.

endheader
time	pelvis_tilt	pelvis_list	pelvis_rotation	pelvis_tx	pelvis_ty	pelvis_tz	hip_flexion_r	hip_adduction_r	hip_rotation_r	knee_angle_r	ankle_angle_r	subtalar_angle_r	mtp_angle_r	hip_flexion_l	hip_adduction_l	hip_rotation_l	knee_angle_l	ankle_angle_l	subtalar_angle_l	mtp_angle_l	lumbar_extension	lumbar_bending	lumbar_rotation	neck_flexion	neck_lateral_bending	neck_rotation	arm_flex_r	arm_add_r	arm_rot_r	elbow_flex_r	pro_sup_r	wrist_flex_r	wrist_dev_r	hand_finger_flex_r	arm_flex_l	arm_add_l	arm_rot_l	elbow_flex_l	pro_sup_l	wrist_flex_l	wrist_dev_l	hand_finger_flex_l
      0.00500000	     15.10994685	      2.79379457	     -6.77477298	     -0.52670399	      0.92521661	      0.35620447	     -0.40175667	     -7.70815411	     -3.16121861	    -65.76890556	      3.85792460	    -12.04024615	      0.00000000	    -11.67259823	      6.06755053	     -1.41580906	    -11.23123254	     16.92909857	     -5.62495558	      0.00000000	    -18.28653241	     -5.99722882	      0.02634409	     -8.55027104	     -0.71841815	      2.43183262	    -12.40638190	    -12.04932304	     -4.59591475	     52.86661421	    -74.72942081	     -7.11785523	    -20.35052782	      0.83200829	    -11.79906360	    -14.58135806	     -1.23231275	     46.70035414	    -39.03403509	    -20.68909423	     -8.34902179	     -3.79236476
      0.01000000	     37.65907638	    -30.42312362	    -47.90866083	     -0.46467717	      0.90187355	      0.35828712	    -35.29041613	      3.12743038	     53.56044547	    -78.38337680	     -2.13977132	    -24.95218486	      0.00000000	    -60.22763423	     28.97917092	    -69.83072958	     12.69094550	     21.15603041	     30.61797571	      0.00000000	    -50.87929080	     -1.79371758	     50.84243597	      4.11620695	     -6.75806107	      0.49724026	    -53.43810142	    -31.28951051	    -21.33751793	     94.13561130	    -90.44731225	    -14.58229056	    -24.99999983	     31.48848311	    -32.57557045	     -2.48127852	     -1.96860788	     72.58066273	    -28.08551025	    -44.50679147	    -15.68604275	     47.61835178
      0.01500000	     15.26018418	      2.79958813	     -6.26744208	     -0.51412313	      0.92597967	      0.35469709	      1.04810406	     -7.79603709	     -4.23508235	    -65.44907665	      5.54101266	    -10.14423189	      0.00000000	    -13.55638569	      6.10877298	     -1.35995817	     -9.65029517	     17.20068951	     -4.74091515	      0.00000000	    -18.54647213	     -5.77941323	     -0.81926954	     -8.41174153	     -0.96339281	      2.35927102	    -13.06666234	    -12.30746396	     -3.71236148	     52.32813688	    -73.71231292	     -7.85885131	    -21.07707808	      0.82951515	    -10.74188701	    -15.16735201	     -0.68428383	     47.57999072	    -39.69155557	    -22.25272239	     -9.08086442	      6.84253861
      0.02000000	     15.17792093	      2.62037278	     -5.97137309	     -0.50810953	      0.92628031	      0.35383091	      1.92161019	     -7.42007169	     -4.46780620	    -65.16689458	      5.94650740	    -10.19771131	      0.00000000	    -14.16456563	      5.90716890	     -1.35991753	     -9.15234756	     17.23069478	     -4.55789896	      0.00000000	    -18.59436820	     -5.44460078	     -1.16227208	     -8.23427418	     -1.02529752	      2.46911353	    -13.28510038	    -12.31134262	     -3.66316359	     51.88603638	    -73.76876116	     -7.91320581	    -21.13179877	      0.77243632	    -10.14419260	    -15.29815356	     -0.85079013	     48.13972263	    -39.66307187	    -22.13981220	     -8.96262970	      6.88499475
      0.02500000	     -4.02324020	      0.23610306	      4.76143410	     -0.52866976	      0.89048354	      0.33394936	     26.36413515	     -7.15112562	    -12.91329072	    -69.93651485	      5.60631407	    -11.15590625	      0.00000000	     18.40624265	     -0.31599780	     69.97836929	     -5.73009058	     -8.63738713	     90.00000018	      0.00000000	     -0.39129176	     -0.64499254	    -10.87100900	     -7.36685840	     -1.61216505	      2.57481359	    -13.21346085	    -12.92927179	     -3.80537885	     52.06303541	    -73.72634818	     -8.60121292	    -21.94397285	      1.84835504	     -8.99257742	    -14.88423611	     -0.88929823	     48.75455077	    -40.21433068	    -22.07616373	     -8.93767861	      7.41680632
      0.03000000	     15.52400788	      1.98812656	     -5.15529851	     -0.49540917	      0.92746472	      0.35203919	      2.61849808	     -6.62715389	     -5.71988996	    -63.79606563	      7.51848597	    -10.45368940	      0.00000000	    -15.68836979	      5.05930154	     -2.40087197	     -8.84079782	     18.58516906	     -1.48169564	      0.00000000	    -19.14272029	     -4.44042109	     -2.14990436	     -8.09819024	     -1.29366792	      2.75444418	    -13.71205917	    -12.46744917	     -3.06256615	     50.98439030	    -72.55873719	     -8.33608489	    -21.23872509	      0.84163163	     -9.06597628	    -15.48208431	     -1.37331879	     49.43513250	    -40.77153341	    -21.88490521	     -9.37614448	      7.00696948
      0.03500000	     15.57978341	      2.16931044	     -4.94069443	     -0.48857963	      0.92757176	      0.35155584	      3.21202444	     -6.79501828	     -6.19029971	    -63.27425990	      8.26491849	    -10.42780629	      0.00000000	    -16.30295323	      5.24431822	     -2.60978187	     -8.55424950	     18.53682428	     -1.22819902	      0.00000000	    -19.15541991	     -4.58397593	     -2.56260931	     -8.14546913	     -1.13525329	      2.90740690	    -14.02330080	    -12.33301704	     -2.97407023	     50.57352489	    -72.35739136	     -8.23953461	    -21.51973893	      0.73684807	     -8.75673829	    -15.68199465	     -1.79886031	     50.25300503	    -40.81033252	    -21.62587512	     -9.53391120	      7.11830643
      0.04000000	     15.65843059	      1.99330601	     -4.02869274	     -0.48336503	      0.92800512	      0.34978917	      3.65571341	     -6.69249285	     -7.44085999	    -62.58848692	      8.82542792	     -9.93667162	      0.00000000	    -16.71162547	      4.88544140	     -1.86698962	     -8.60021709	     18.93756637	     -1.03264523	      0.00000000	    -19.56262975	     -4.03705719	     -3.62332416	     -7.73674431	     -1.25990653	      3.18989195	    -13.96668949	    -12.35004551	     -2.79257914	     50.29027779	    -72.26498402	     -8.32731186	    -22.19366773	      0.49543276	     -7.96931799	    -15.86176870	     -1.95628414	     50.60975576	    -40.87642474	    -21.43302312	     -9.62495674	      7.30365891
      0.04500000	     15.69321794	      1.69661444	     -3.30618323	     -0.47788630	      0.92833024	      0.34835028	      4.25024565	     -6.47711921	     -8.51635097	    -62.02223825	      9.04109560	     -9.39839713	      0.00000000	    -17.24749117	      4.44053032	     -1.29649883	     -8.42679671	     19.21872049	     -1.08559789	      0.00000000	    -19.84710895	     -3.41175093	     -4.42689778	     -7.42294426	     -1.48979916	      3.24807370	    -13.95102577	    -12.37832500	     -2.74424019	     50.13963203	    -72.46011687	     -8.55907417	    -23.32929956	      0.19031716	     -7.13851456	    -16.00243217	     -2.19213149	     50.90381673	    -41.12882080	    -21.42515718	     -9.48299460	      7.56627420
